# xmcd
#
# Track frame offsets: 
#        150
#        19426
#        35627
#        48336
#        66405
#        76117
#        87515
#        100341
#        110741
#        121636
#        142262
#
# Disc length: 2075 seconds
#
# Revision: 0
# Processed by: cddbd v1.5.2PL0 Copyright (c) Steve Scherf et al.
# Submitted via: ExactAudioCopy v0.99pb3
#
DISCID=9b08190b
DTITLE=Various Artist - Class aA: Beyond Entertainment
DYEAR=2005
DGENRE=Akoustik Anarkhy
TTITLE0=Autokat - The Driver
TTITLE1=Loose Cannon - Altercation
TTITLE2=Harrisons - Man Of The Hour
TTITLE3=Soft Priest - Patchwork Guilt
TTITLE4=Sam and Me - Ex's
TTITLE5=Jack Cooper - Love Letters
TTITLE6=The Exports - Darlin'
TTITLE7=Nine Black Alps - Over The Ocean
TTITLE8=Pierre Hall - I Know
TTITLE9=The Longcut - Transition (live)
TTITLE10=Yacht Club - There Was A Party
EXTD=
EXTT0=
EXTT1=
EXTT2=
EXTT3=
EXTT4=
EXTT5=
EXTT6=
EXTT7=
EXTT8=
EXTT9=
EXTT10=
PLAYORDER=
